<svg xmlns="http://www.w3.org/2000/svg" version="1.1" xmlns:xlink="http://www.w3.org/1999/xlink" width="512" height="512"><svg width="512" height="512" viewBox="0 0 512 512" fill="none" xmlns="http://www.w3.org/2000/svg">
<rect width="512" height="512" rx="64" fill="white"></rect>
<path d="M206.525 325.393V139.611L128.732 181.604V410.159L172.769 363.686C172.923 363.55 173.066 363.41 173.233 363.276C177.926 359.518 182.415 355.548 186.784 351.45C188.112 340.046 196.203 330.221 206.525 325.393Z" fill="#004B96"></path>
<path d="M276.856 250.616C279.268 247.148 281.769 243.776 284.317 240.452V78.5553L206.525 120.548V302.63H226.076C231.176 292.16 242.021 284.439 253.653 283.217C255.491 278.715 257.217 274.289 259.985 270.284C264.014 264.451 268.587 260.076 273.729 256.797C274.49 254.618 275.52 252.537 276.856 250.616Z" fill="#004B96"></path>
<path d="M361.395 160.908C361.432 160.872 361.473 160.844 361.508 160.809V121.208L285.423 80.401V239C307.831 210.156 335.034 186.285 361.395 160.908Z" fill="white"></path>
<path d="M286.527 237.58V82.2465L360.404 121.868V161.856C360.734 161.539 361.067 161.224 361.395 160.908C361.79 160.528 362.209 160.2 362.614 159.843V120.547L284.317 78.5553V240.452C285.052 239.493 285.781 238.528 286.527 237.58Z" fill="#004B96"></path>
<path d="M207.627 141.457V324.893C208.772 324.403 209.944 323.982 211.133 323.621C211.464 322.94 211.809 322.276 212.179 321.644C215.173 316.53 218.995 313.091 223.503 310.393C226.136 296.133 239.296 284.725 253.653 283.217C255.491 278.715 257.217 274.289 259.985 270.284C264.014 264.451 268.587 260.076 273.729 256.797C274.49 254.618 275.52 252.537 276.856 250.616C278.919 247.65 281.053 244.758 283.217 241.898V182.26L207.627 141.457Z" fill="white"></path>
<path d="M206.525 139.611V325.393C207.249 325.053 207.983 324.74 208.727 324.451V143.302L282.116 182.917V243.343C282.842 242.371 283.581 241.413 284.317 240.452L284.318 181.604L206.525 139.611Z" fill="#004B96"></path>
<path d="M372.52 131.887L117.737 406.186L116.667 433.445L395.333 131.887H372.52Z" fill="#E80730"></path>
</svg><style>@media (prefers-color-scheme: light) { :root { filter: none; } }
@media (prefers-color-scheme: dark) { :root { filter: none; } }
</style></svg>