<svg width="61" height="32" viewBox="0 0 61 32" fill="none" xmlns="http://www.w3.org/2000/svg">
<g clip-path="url(#clip0_10_1667)">
<path d="M1.14832 29.8194V30.2747H2.26276V30.9502H1.14832V31.8001H0.247635V29.1439H2.41927V29.8194H1.14832Z" fill="#E80730"/>
<path d="M4.18288 30.6922L3.92337 30.0244L3.66387 30.6922H4.18288ZM4.43096 31.3372H3.41572L3.23644 31.8001H2.32038L3.48826 29.144H4.37372L5.54173 31.8001H4.61045L4.43096 31.3372Z" fill="#E80730"/>
<path d="M5.51926 31.5876L5.80943 30.935C6.06125 31.0829 6.39718 31.1778 6.69101 31.1778C6.94664 31.1778 7.03829 31.1247 7.03829 31.0336C7.03829 30.6997 5.56128 30.9691 5.56128 29.9788C5.56128 29.4855 5.97729 29.0832 6.80543 29.0832C7.16427 29.0832 7.53453 29.1591 7.81314 29.3147L7.54207 29.9636C7.27869 29.8307 7.03075 29.7663 6.79789 29.7663C6.53451 29.7663 6.45061 29.8422 6.45061 29.9332C6.45061 30.2519 7.92756 29.9863 7.92756 30.9653C7.92756 31.451 7.51162 31.8608 6.68333 31.8608C6.23679 31.8608 5.78645 31.7508 5.51926 31.5876Z" fill="#E80730"/>
<path d="M8.73724 29.8384H7.95485V29.144H10.4205V29.8384H9.63807V31.8001H8.73724V29.8384Z" fill="#E80730"/>
<path d="M10.6536 29.1439H11.5543V31.8001H10.6536V29.1439Z" fill="#E80730"/>
<path d="M13.7567 30.3999H14.5391V31.5232C14.2148 31.7432 13.7683 31.8608 13.3751 31.8608C12.5126 31.8608 11.8828 31.2879 11.8828 30.472C11.8828 29.6562 12.5126 29.0832 13.3942 29.0832C13.9209 29.0832 14.3446 29.2654 14.6155 29.5955L14.0392 30.1002C13.8713 29.9066 13.6766 29.808 13.4399 29.808C13.043 29.808 12.7912 30.0622 12.7912 30.472C12.7912 30.8704 13.043 31.1361 13.4286 31.1361C13.5392 31.1361 13.6461 31.1171 13.7567 31.0716V30.3999Z" fill="#E80730"/>
<path d="M17.5587 29.144V31.8001H16.6579V30.8212H15.8259V31.8001H14.9253V29.144H15.8259V30.085H16.6579V29.144H17.5587Z" fill="#E80730"/>
<path d="M20.2155 31.1247V31.8H17.9943V29.1439H20.1659V29.8194H18.8798V30.1305H20.0094V30.7756H18.8798V31.1247H20.2155Z" fill="#E80730"/>
<path d="M21.1433 29.8384H20.3609V29.144H22.8265V29.8384H22.0441V31.8001H21.1433V29.8384Z" fill="#E80730"/>
<path d="M25.1591 29.8042C25.1591 29.8688 25.1857 29.918 25.2926 30.0167C25.4491 29.9332 25.5025 29.8612 25.5025 29.7891C25.5025 29.7094 25.4491 29.6525 25.3422 29.6525C25.2239 29.6525 25.1591 29.7169 25.1591 29.8042ZM25.5673 31.1589L25.0788 30.7414C24.9721 30.8173 24.93 30.897 24.93 30.9957C24.93 31.1209 25.0522 31.2233 25.2659 31.2233C25.369 31.2233 25.472 31.2006 25.5673 31.1589ZM26.5864 31.1171L26.8384 31.3296L26.3766 31.8494L26.0941 31.6066C25.8385 31.7698 25.5369 31.8608 25.2009 31.8608C24.5598 31.8608 24.0865 31.5345 24.0865 31.0905C24.0865 30.7566 24.2507 30.5214 24.6057 30.3241C24.4492 30.1571 24.3767 29.9902 24.3767 29.8156C24.3767 29.3906 24.7584 29.0985 25.3385 29.0985C25.8689 29.0985 26.2239 29.3603 26.2239 29.7701C26.2239 30.0395 26.075 30.2444 25.762 30.4189L26.0445 30.658C26.0902 30.5556 26.1247 30.4379 26.1475 30.3127L26.8384 30.5176C26.7887 30.7376 26.7047 30.9387 26.5864 31.1171Z" fill="#004B96"/>
<path d="M29.4037 30.9198L29.2015 31.1437V31.8001H28.3161V29.1439H29.2015V30.1078L30.0792 29.1439H31.0601L29.9915 30.3127L31.1136 31.8001H30.0717L29.4037 30.9198Z" fill="#E80730"/>
<path d="M33.1409 30.472C33.1409 30.0584 32.8737 29.808 32.5416 29.808C32.2095 29.808 31.9425 30.0584 31.9425 30.472C31.9425 30.8856 32.2095 31.1361 32.5416 31.1361C32.8737 31.1361 33.1409 30.8856 33.1409 30.472ZM31.0341 30.472C31.0341 29.6676 31.6714 29.0832 32.5416 29.0832C33.4118 29.0832 34.0492 29.6676 34.0492 30.472C34.0492 31.2764 33.4118 31.8608 32.5416 31.8608C31.6714 31.8608 31.0341 31.2764 31.0341 30.472Z" fill="#E80730"/>
<path d="M37.0116 29.144V31.8001H36.2711L35.2558 30.5935V31.8001H34.3781V29.144H35.1184L36.1337 30.3506V29.144H37.0116Z" fill="#E80730"/>
<path d="M37.2791 31.5876L37.5693 30.935C37.8211 31.0829 38.157 31.1778 38.4508 31.1778C38.7065 31.1778 38.7981 31.1247 38.7981 31.0336C38.7981 30.6997 37.3211 30.9691 37.3211 29.9788C37.3211 29.4855 37.7371 29.0832 38.5653 29.0832C38.9241 29.0832 39.2944 29.1591 39.573 29.3147L39.3019 29.9636C39.0385 29.8307 38.7906 29.7663 38.5577 29.7663C38.2943 29.7663 38.2104 29.8422 38.2104 29.9332C38.2104 30.2519 39.6874 29.9863 39.6874 30.9653C39.6874 31.451 39.2714 31.8608 38.4432 31.8608C37.9966 31.8608 37.5463 31.7508 37.2791 31.5876Z" fill="#E80730"/>
<path d="M39.9321 30.6049V29.1439H40.8328V30.5783C40.8328 30.9843 40.9893 31.1361 41.2413 31.1361C41.4931 31.1361 41.6496 30.9843 41.6496 30.5783V29.1439H42.5352V30.6049C42.5352 31.4017 42.0541 31.8608 41.2335 31.8608C40.4129 31.8608 39.9321 31.4017 39.9321 30.6049Z" fill="#E80730"/>
<path d="M42.9478 29.144H43.8485V31.1057H45.0545V31.8001H42.9478V29.144Z" fill="#E80730"/>
<path d="M45.635 29.8384H44.8526V29.144H47.3182V29.8384H46.5358V31.8001H45.635V29.8384Z" fill="#E80730"/>
<path d="M16.7462 10.8647V17.1345C16.7462 19.776 14.6797 20.5831 9.69806 20.5831H5.60204L0.0299835 27.6269H9.69806C20.1042 27.6269 25.3071 23.9216 25.3071 16.4742V10.8647H16.8568H16.7462Z" fill="#004B96"/>
<path d="M22.3921 3.08376L16.8568 10.2376H27.2862V27.6269H35.8472V10.2376H37.6411L43.1763 3.08376H22.3921Z" fill="#E80730"/>
<path d="M43.9722 3.08376L38.437 10.2375H38.7728V27.6269H47.3338V10.2375H55.4521L60.9872 3.08376H43.9722Z" fill="#004B96"/>
<path d="M5.50714 14.3438V3.56196L0.967636 5.99898V19.2632L3.53735 16.5661C3.54635 16.5582 3.55466 16.5501 3.56442 16.5423C3.83825 16.3242 4.10025 16.0938 4.35519 15.856C4.43264 15.1942 4.90479 14.624 5.50714 14.3438Z" fill="#004B96"/>
<path d="M9.61123 10.0041C9.75195 9.80285 9.89794 9.60713 10.0466 9.41424V0.0185556L5.50711 2.45558V13.0227H6.648C6.94564 12.4151 7.57845 11.967 8.25722 11.8961C8.36451 11.6348 8.46522 11.3779 8.62671 11.1455C8.86185 10.807 9.1287 10.5531 9.42876 10.3628C9.47313 10.2363 9.53329 10.1156 9.61123 10.0041Z" fill="#004B96"/>
<path d="M14.5444 4.79788C14.5466 4.79581 14.5489 4.79416 14.551 4.79216V2.49388L10.1112 0.12567V9.32997C11.4187 7.65599 13.0062 6.27063 14.5444 4.79788Z" fill="white"/>
<path d="M10.1756 9.24754V0.232762L14.4866 2.53222V4.85287C14.5058 4.8345 14.5252 4.81626 14.5444 4.79789C14.5674 4.77587 14.5919 4.7568 14.6155 4.73609V2.45556L10.0467 0.0185347V9.41422C10.0895 9.35854 10.132 9.30252 10.1756 9.24754Z" fill="#004B96"/>
<path d="M5.57142 3.66907V14.3147C5.63829 14.2863 5.70667 14.2619 5.77603 14.2409C5.79534 14.2014 5.81549 14.1629 5.83708 14.1262C6.0118 13.8294 6.23482 13.6298 6.49786 13.4732C6.65153 12.6456 7.41945 11.9836 8.25722 11.8961C8.36451 11.6349 8.46522 11.3779 8.62671 11.1455C8.86185 10.8071 9.1287 10.5533 9.42863 10.3631C9.47306 10.2365 9.53322 10.1157 9.61123 10.004C9.7316 9.83192 9.85613 9.66415 9.98238 9.49816V6.03707L5.57142 3.66907Z" fill="white"/>
<path d="M5.50715 3.56197V14.3438C5.54937 14.3241 5.59222 14.3058 5.63562 14.2891V3.77612L9.91818 6.07517V9.58203C9.96055 9.5256 10.0037 9.46999 10.0467 9.41425V5.99899L5.50715 3.56197Z" fill="#004B96"/>
<path d="M15.1936 3.11363L0.32601 19.0326L0.263573 20.6145L16.5248 3.11363H15.1936Z" fill="#E80730"/>
</g>
<defs>
<clipPath id="clip0_10_1667">
<rect width="61" height="32" fill="white"/>
</clipPath>
</defs>
</svg>
