<svg width="125" height="66" viewBox="0 0 125 66" fill="none" xmlns="http://www.w3.org/2000/svg">
<g clip-path="url(#clip0_21_615)">
<path d="M2.35312 61.5024V62.4416H4.63681V63.8347H2.35312V65.5878H0.507446V60.1093H4.95752V61.5024H2.35312Z" fill="#E80730"/>
<path d="M8.57145 63.3025L8.03967 61.9252L7.5079 63.3025H8.57145ZM9.07982 64.6329H6.99939L6.63202 65.5877H4.75485L7.14804 60.1094H8.96251L11.356 65.5877H9.44762L9.07982 64.6329Z" fill="#E80730"/>
<path d="M11.31 65.1494L11.9046 63.8034C12.4206 64.1086 13.109 64.3043 13.7111 64.3043C14.2349 64.3043 14.4227 64.1947 14.4227 64.0068C14.4227 63.3181 11.3961 63.8738 11.3961 61.8312C11.3961 60.8138 12.2485 59.9842 13.9456 59.9842C14.6809 59.9842 15.4396 60.1406 16.0105 60.4617L15.4551 61.8C14.9154 61.5259 14.4073 61.3929 13.9301 61.3929C13.3904 61.3929 13.2185 61.5495 13.2185 61.7373C13.2185 62.3946 16.245 61.8468 16.245 63.866C16.245 64.8676 15.3927 65.713 13.6954 65.713C12.7803 65.713 11.8575 65.4861 11.31 65.1494Z" fill="#E80730"/>
<path d="M17.9042 61.5416H16.3009V60.1095H21.3534V61.5416H19.7501V65.5878H17.9042V61.5416Z" fill="#E80730"/>
<path d="M21.8312 60.1094H23.6769V65.5877H21.8312V60.1094Z" fill="#E80730"/>
<path d="M28.19 62.6998H29.7933V65.0165C29.1286 65.4704 28.2137 65.713 27.4079 65.713C25.6405 65.713 24.35 64.5312 24.35 62.8486C24.35 61.1659 25.6405 59.9842 27.4471 59.9842C28.5265 59.9842 29.3947 60.3599 29.9499 61.0408L28.7689 62.0817C28.4248 61.6824 28.0259 61.479 27.5408 61.479C26.7275 61.479 26.2115 62.0034 26.2115 62.8486C26.2115 63.6702 26.7275 64.2183 27.5176 64.2183C27.7444 64.2183 27.9634 64.1791 28.19 64.0851V62.6998Z" fill="#E80730"/>
<path d="M35.981 60.1094V65.5877H34.1351V63.5687H32.4301V65.5877H30.5846V60.1094H32.4301V62.0504H34.1351V60.1094H35.981Z" fill="#E80730"/>
<path d="M41.4252 64.1947V65.5876H36.8736V60.1094H41.3236V61.5025H38.688V62.1441H41.0029V63.4747H38.688V64.1947H41.4252Z" fill="#E80730"/>
<path d="M43.3264 61.5416H41.7231V60.1095H46.7756V61.5416H45.1723V65.5878H43.3264V61.5416Z" fill="#E80730"/>
<path d="M51.5554 61.4712C51.5554 61.6043 51.6101 61.706 51.8291 61.9095C52.1498 61.7373 52.2593 61.5887 52.2593 61.44C52.2593 61.2756 52.1498 61.1582 51.9308 61.1582C51.6884 61.1582 51.5554 61.2912 51.5554 61.4712ZM52.392 64.2652L51.391 63.4042C51.1723 63.5608 51.0861 63.7251 51.0861 63.9287C51.0861 64.1869 51.3364 64.3981 51.7745 64.3981C51.9857 64.3981 52.1967 64.3512 52.392 64.2652ZM54.4804 64.1791L54.9967 64.6174L54.0503 65.6894L53.4715 65.1886C52.9476 65.5252 52.3296 65.713 51.6413 65.713C50.3275 65.713 49.3576 65.04 49.3576 64.1243C49.3576 63.4356 49.694 62.9503 50.4215 62.5434C50.1008 62.1991 49.9522 61.8547 49.9522 61.4948C49.9522 60.6182 50.7343 60.0157 51.9231 60.0157C53.0101 60.0157 53.7376 60.5556 53.7376 61.4008C53.7376 61.9565 53.4323 62.379 52.791 62.739L53.3699 63.2322C53.4635 63.0209 53.5343 62.7782 53.581 62.52L54.9967 62.9425C54.8949 63.3964 54.7228 63.8112 54.4804 64.1791Z" fill="#004B96"/>
<path d="M60.2535 63.7722L59.8392 64.2339V65.5878H58.0247V60.1094H59.8392V62.0974L61.6377 60.1094H63.6478L61.4579 62.52L63.7573 65.5878H61.6223L60.2535 63.7722Z" fill="#E80730"/>
<path d="M67.9116 62.8486C67.9116 61.9956 67.3641 61.4791 66.6837 61.4791C66.0031 61.4791 65.4559 61.9956 65.4559 62.8486C65.4559 63.7016 66.0031 64.2183 66.6837 64.2183C67.3641 64.2183 67.9116 63.7016 67.9116 62.8486ZM63.5944 62.8486C63.5944 61.1895 64.9004 59.9842 66.6837 59.9842C68.4668 59.9842 69.773 61.1895 69.773 62.8486C69.773 64.5077 68.4668 65.713 66.6837 65.713C64.9004 65.713 63.5944 64.5077 63.5944 62.8486Z" fill="#E80730"/>
<path d="M75.8434 60.1094V65.5877H74.3259L72.2455 63.099V65.5877H70.4469V60.1094H71.964L74.0445 62.5981V60.1094H75.8434Z" fill="#E80730"/>
<path d="M76.3916 65.1494L76.9862 63.8034C77.5022 64.1086 78.1906 64.3043 78.7927 64.3043C79.3165 64.3043 79.5043 64.1947 79.5043 64.0068C79.5043 63.3181 76.4777 63.8738 76.4777 61.8312C76.4777 60.8138 77.3302 59.9842 79.0272 59.9842C79.7625 59.9842 80.5212 60.1406 81.0921 60.4617L80.5367 61.8C79.997 61.5259 79.4889 61.3929 79.0117 61.3929C78.472 61.3929 78.3001 61.5495 78.3001 61.7373C78.3001 62.3946 81.3266 61.8468 81.3266 63.866C81.3266 64.8676 80.4743 65.713 78.777 65.713C77.8619 65.713 76.9391 65.4861 76.3916 65.1494Z" fill="#E80730"/>
<path d="M81.8282 63.1225V60.1094H83.6738V63.0678C83.6738 63.9052 83.9944 64.2183 84.5109 64.2183C85.0267 64.2183 85.3474 63.9052 85.3474 63.0678V60.1094H87.1622V63.1225C87.1622 64.766 86.1765 65.713 84.495 65.713C82.8134 65.713 81.8282 64.766 81.8282 63.1225Z" fill="#E80730"/>
<path d="M88.0077 60.1094H89.8534V64.1556H92.3249V65.5877H88.0077V60.1094Z" fill="#E80730"/>
<path d="M93.5143 61.5416H91.9111V60.1095H96.9636V61.5416H95.3603V65.5878H93.5143V61.5416Z" fill="#E80730"/>
<path d="M34.3159 22.4085V35.3399C34.3159 40.788 30.0813 42.4526 19.8731 42.4526H11.4796L0.0614319 56.9804H19.8731C41.197 56.9804 51.8589 49.3382 51.8589 33.9781V22.4085H34.5427H34.3159Z" fill="#004B96"/>
<path d="M45.8854 6.36025L34.5427 21.115H55.9143V56.9804H73.4574V21.115H77.1334L88.476 6.36025H45.8854Z" fill="#E80730"/>
<path d="M90.1069 6.36025L78.7644 21.1149H79.4525V56.9804H96.9956V21.1149H113.631L124.974 6.36025H90.1069Z" fill="#004B96"/>
<path d="M11.2851 29.584V7.3465L1.98288 12.3729V39.7302L7.24869 34.1676C7.26713 34.1513 7.28416 34.1346 7.30416 34.1185C7.86529 33.6687 8.40217 33.1935 8.92458 32.703C9.0833 31.338 10.0508 30.1619 11.2851 29.584Z" fill="#004B96"/>
<path d="M19.6951 20.6334C19.9835 20.2184 20.2827 19.8147 20.5873 19.4169V0.0382824L11.2851 5.06464V26.8594H13.6229C14.2329 25.6061 15.5296 24.682 16.9205 24.5356C17.1404 23.9969 17.3468 23.467 17.6777 22.9877C18.1595 22.2895 18.7063 21.7658 19.3212 21.3733C19.4122 21.1124 19.5354 20.8633 19.6951 20.6334Z" fill="#004B96"/>
<path d="M29.8041 9.89566C29.8085 9.8914 29.8134 9.88799 29.8176 9.88388V5.14366L20.7196 0.259233V19.2431C23.399 15.7905 26.6519 12.9332 29.8041 9.89566Z" fill="white"/>
<path d="M20.8516 19.0731V0.480124L29.6856 5.22276V10.0091C29.7251 9.97121 29.7648 9.93359 29.8041 9.8957C29.8513 9.85028 29.9014 9.81096 29.9499 9.76824V5.06464L20.5875 0.0382805V19.4169C20.6753 19.302 20.7624 19.1865 20.8516 19.0731Z" fill="#004B96"/>
<path d="M11.4168 7.56746V29.5242C11.5538 29.4656 11.694 29.4152 11.8361 29.3719C11.8757 29.2904 11.917 29.2109 11.9612 29.1353C12.3192 28.5231 12.7762 28.1115 13.3152 27.7886C13.6301 26.0817 15.2038 24.7162 16.9205 24.5357C17.1404 23.9969 17.3467 23.4669 17.6777 22.9876C18.1595 22.2896 18.7063 21.7663 19.3209 21.374C19.412 21.1128 19.5352 20.8636 19.6951 20.6333C19.9418 20.2784 20.1969 19.9323 20.4557 19.59V12.4515L11.4168 7.56746Z" fill="white"/>
<path d="M11.2851 7.34658V29.584C11.3716 29.5435 11.4594 29.5058 11.5484 29.4713V7.78829L20.3241 12.5301V19.763C20.4109 19.6466 20.4993 19.5319 20.5874 19.4169V12.3729L11.2851 7.34658Z" fill="#004B96"/>
<path d="M31.1344 6.42188L0.668014 39.2547L0.54007 42.5175L33.8623 6.42188H31.1344Z" fill="#E80730"/>
</g>
<defs>
<clipPath id="clip0_21_615">
<rect width="125" height="66" fill="white"/>
</clipPath>
</defs>
</svg>
