<svg width="100" height="53" viewBox="0 0 100 53" fill="none" xmlns="http://www.w3.org/2000/svg">
<g clip-path="url(#clip0_10_959)">
<path d="M1.8825 49.3883V50.1425H3.70945V51.2612H1.8825V52.669H0.40596V48.2696H3.96602V49.3883H1.8825Z" fill="#E80730"/>
<path d="M6.85718 50.8339L6.43176 49.7278L6.00634 50.8339H6.85718ZM7.26387 51.9022H5.59953L5.30563 52.6689H3.8039L5.71845 48.2697H7.17003L9.08481 52.6689H7.55811L7.26387 51.9022Z" fill="#E80730"/>
<path d="M9.04797 52.3169L9.52366 51.2361C9.93648 51.4811 10.4872 51.6383 10.9689 51.6383C11.3879 51.6383 11.5382 51.5503 11.5382 51.3994C11.5382 50.8464 9.11685 51.2926 9.11685 49.6523C9.11685 48.8353 9.79884 48.1691 11.1565 48.1691C11.7447 48.1691 12.3517 48.2947 12.8084 48.5526L12.3641 49.6273C11.9323 49.4072 11.5258 49.3004 11.1441 49.3004C10.7123 49.3004 10.5748 49.4261 10.5748 49.5769C10.5748 50.1047 12.996 49.6649 12.996 51.2863C12.996 52.0907 12.3141 52.7695 10.9563 52.7695C10.2243 52.7695 9.48599 52.5873 9.04797 52.3169Z" fill="#E80730"/>
<path d="M14.3234 49.4198H13.0407V48.2697H17.0827V49.4198H15.8001V52.6689H14.3234V49.4198Z" fill="#E80730"/>
<path d="M17.465 48.2697H18.9415V52.6689H17.465V48.2697Z" fill="#E80730"/>
<path d="M22.552 50.3499H23.8346V52.2102C23.3029 52.5747 22.571 52.7695 21.9263 52.7695C20.5124 52.7695 19.48 51.8205 19.48 50.4693C19.48 49.1181 20.5124 48.1691 21.9576 48.1691C22.8212 48.1691 23.5158 48.4708 23.9599 49.0176L23.0151 49.8535C22.7398 49.5329 22.4207 49.3695 22.0327 49.3695C21.382 49.3695 20.9692 49.7906 20.9692 50.4693C20.9692 51.1291 21.382 51.5692 22.014 51.5692C22.1955 51.5692 22.3707 51.5377 22.552 51.4623V50.3499Z" fill="#E80730"/>
<path d="M28.7848 48.2697V52.6689H27.3081V51.0476H25.9441V52.6689H24.4677V48.2697H25.9441V49.8283H27.3081V48.2697H28.7848Z" fill="#E80730"/>
<path d="M33.1402 51.5503V52.6689H29.4989V48.2697H33.0589V49.3884H30.9504V49.9037H32.8023V50.9721H30.9504V51.5503H33.1402Z" fill="#E80730"/>
<path d="M34.6611 49.4198H33.3785V48.2697H37.4205V49.4198H36.1379V52.6689H34.6611V49.4198Z" fill="#E80730"/>
<path d="M41.2444 49.3632C41.2444 49.4701 41.2881 49.5517 41.4633 49.7152C41.7198 49.5769 41.8074 49.4576 41.8074 49.3381C41.8074 49.2062 41.7198 49.1119 41.5446 49.1119C41.3507 49.1119 41.2444 49.2187 41.2444 49.3632ZM41.9136 51.6069L41.1128 50.9155C40.9379 51.0412 40.8689 51.1732 40.8689 51.3366C40.8689 51.544 41.0692 51.7136 41.4196 51.7136C41.5885 51.7136 41.7574 51.676 41.9136 51.6069ZM43.5843 51.5377L43.9974 51.8897L43.2403 52.7505L42.7772 52.3484C42.3581 52.6187 41.8637 52.7695 41.313 52.7695C40.262 52.7695 39.4861 52.2291 39.4861 51.4937C39.4861 50.9407 39.7552 50.551 40.3372 50.2242C40.0807 49.9477 39.9618 49.6712 39.9618 49.3821C39.9618 48.6782 40.5875 48.1944 41.5385 48.1944C42.4081 48.1944 42.9901 48.6279 42.9901 49.3067C42.9901 49.7529 42.7459 50.0922 42.2328 50.3813L42.6959 50.7774C42.7708 50.6076 42.8275 50.4127 42.8648 50.2054L43.9974 50.5447C43.9159 50.9092 43.7783 51.2423 43.5843 51.5377Z" fill="#004B96"/>
<path d="M48.2028 51.211L47.8713 51.5818V52.669H46.4198V48.2697H47.8713V49.866L49.3102 48.2697H50.9183L49.1663 50.2055L51.0059 52.669H49.2978L48.2028 51.211Z" fill="#E80730"/>
<path d="M54.3293 50.4693C54.3293 49.7843 53.8913 49.3696 53.3469 49.3696C52.8025 49.3696 52.3647 49.7843 52.3647 50.4693C52.3647 51.1543 52.8025 51.5692 53.3469 51.5692C53.8913 51.5692 54.3293 51.1543 54.3293 50.4693ZM50.8756 50.4693C50.8756 49.137 51.9203 48.1691 53.3469 48.1691C54.7734 48.1691 55.8184 49.137 55.8184 50.4693C55.8184 51.8016 54.7734 52.7695 53.3469 52.7695C51.9203 52.7695 50.8756 51.8016 50.8756 50.4693Z" fill="#E80730"/>
<path d="M60.6747 48.2697V52.6689H59.4607L57.7964 50.6704V52.6689H56.3575V48.2697H57.5711L59.2356 50.2682V48.2697H60.6747Z" fill="#E80730"/>
<path d="M61.1133 52.3169L61.589 51.2361C62.0018 51.4811 62.5525 51.6383 63.0342 51.6383C63.4532 51.6383 63.6035 51.5503 63.6035 51.3994C63.6035 50.8464 61.1821 51.2926 61.1821 49.6523C61.1821 48.8353 61.8641 48.1691 63.2218 48.1691C63.81 48.1691 64.417 48.2947 64.8737 48.5526L64.4294 49.6273C63.9976 49.4072 63.5911 49.3004 63.2094 49.3004C62.7776 49.3004 62.6401 49.4261 62.6401 49.5769C62.6401 50.1047 65.0613 49.6649 65.0613 51.2863C65.0613 52.0907 64.3794 52.7695 63.0216 52.7695C62.2896 52.7695 61.5513 52.5873 61.1133 52.3169Z" fill="#E80730"/>
<path d="M65.4625 50.6893V48.2697H66.9391V50.6453C66.9391 51.3178 67.1955 51.5692 67.6087 51.5692C68.0214 51.5692 68.278 51.3178 68.278 50.6453V48.2697H69.7298V50.6893C69.7298 52.0091 68.9412 52.7695 67.596 52.7695C66.2507 52.7695 65.4625 52.0091 65.4625 50.6893Z" fill="#E80730"/>
<path d="M70.4062 48.2697H71.8827V51.5189H73.8599V52.6689H70.4062V48.2697Z" fill="#E80730"/>
<path d="M74.8115 49.4198H73.5289V48.2697H77.5708V49.4198H76.2882V52.6689H74.8115V49.4198Z" fill="#E80730"/>
<path d="M27.4527 17.9947V28.379C27.4527 32.754 24.065 34.0907 15.8985 34.0907H9.18367L0.0491486 45.757H15.8985C32.9576 45.757 41.4871 39.62 41.4871 27.2854V17.9947H27.6342H27.4527Z" fill="#004B96"/>
<path d="M36.7083 5.10744L27.6342 16.956H44.7315V45.757H58.766V16.956H61.7068L70.7808 5.10744H36.7083Z" fill="#E80730"/>
<path d="M72.0855 5.10747L63.0115 16.9559H63.562V45.757H77.5965V16.9559H90.9052L99.9791 5.10747H72.0855Z" fill="#004B96"/>
<path d="M9.02811 23.7568V5.89946L1.5863 9.93578V31.9046L5.79895 27.4376C5.8137 27.4245 5.82732 27.4111 5.84332 27.3982C6.29222 27.037 6.72173 26.6554 7.13966 26.2615C7.26664 25.1654 8.04065 24.2209 9.02811 23.7568Z" fill="#004B96"/>
<path d="M15.7561 16.5692C15.9868 16.236 16.2261 15.9118 16.4699 15.5923V0.030735L9.02805 4.06706V21.5689H10.8984C11.3863 20.5625 12.4237 19.8204 13.5364 19.7029C13.7123 19.2702 13.8774 18.8447 14.1422 18.4598C14.5276 17.8991 14.9651 17.4786 15.457 17.1634C15.5297 16.9539 15.6283 16.7539 15.7561 16.5692Z" fill="#004B96"/>
<path d="M23.8433 7.94651C23.8468 7.94309 23.8507 7.94035 23.8541 7.93705V4.13051L16.5757 0.208166V15.4528C18.7192 12.6803 21.3216 10.3858 23.8433 7.94651Z" fill="white"/>
<path d="M16.6813 15.3163V0.385533L23.7485 4.19401V8.03759C23.7801 8.00716 23.8118 7.97696 23.8433 7.94653C23.8811 7.91005 23.9211 7.87848 23.9599 7.84417V4.06704L16.47 0.0307198V15.5923C16.5402 15.5001 16.6099 15.4073 16.6813 15.3163Z" fill="#004B96"/>
<path d="M9.13348 6.0769V23.7088C9.24309 23.6617 9.35521 23.6213 9.46891 23.5865C9.50057 23.5211 9.53359 23.4573 9.56899 23.3965C9.85541 22.9049 10.221 22.5744 10.6522 22.3151C10.9041 20.9444 12.163 19.8479 13.5364 19.7029C13.7123 19.2703 13.8774 18.8447 14.1422 18.4597C14.5276 17.8992 14.9651 17.479 15.4568 17.1639C15.5296 16.9542 15.6282 16.7541 15.7561 16.5692C15.9534 16.2841 16.1576 16.0062 16.3646 15.7313V9.9989L9.13348 6.0769Z" fill="white"/>
<path d="M9.02811 5.89951V23.7569C9.09733 23.7243 9.16758 23.6941 9.23872 23.6664V6.25421L16.2593 10.062V15.8702C16.3288 15.7768 16.3995 15.6847 16.4699 15.5924V9.93583L9.02811 5.89951Z" fill="#004B96"/>
<path d="M24.9075 5.15695L0.534431 31.5227L0.432076 34.1428L27.0899 5.15695H24.9075Z" fill="#E80730"/>
</g>
<defs>
<clipPath id="clip0_10_959">
<rect width="100" height="53" fill="white"/>
</clipPath>
</defs>
</svg>
